<?xml version="1.0" encoding="UTF-8" standalone="no"?>
<!DOCTYPE svg PUBLIC "-//W3C//DTD SVG 1.1//EN" "http://www.w3.org/Graphics/SVG/1.1/DTD/svg11.dtd">
<svg width="100%" height="100%" viewBox="0 0 1900 262" version="1.1" xmlns="http://www.w3.org/2000/svg" xmlns:xlink="http://www.w3.org/1999/xlink" xml:space="preserve" xmlns:serif="http://www.serif.com/" style="fill-rule:evenodd;clip-rule:evenodd;stroke-linejoin:round;stroke-miterlimit:2;">
    <g transform="matrix(1,0,0,1,-53.8,-467.552496)">
        <g transform="matrix(1.362593,0,0,1.362593,-3023.889329,-213.744119)">
            <g transform="matrix(0.147806,0,0,0.147806,2221.34954,448.156389)">
                <g transform="matrix(0.994576,0,0,0.991982,-15.371758,13.480664)">
                    <path d="M325.792,1547.092L1020.91,340L1020.91,641.898L586.192,1396.357L325.792,1547.092ZM1081.237,444.76L1775,1649.5L1774.355,1649.5L1515.165,1499.465L1515.593,1499.465L1081.237,745.634L1081.237,444.76ZM1653.16,1649.5L269.533,1649.5L528.723,1499.465L1393.97,1499.465L1653.16,1649.5Z" style="fill:rgb(255,96,0);"/>
                </g>
                <g transform="matrix(0.318455,0,0,0.310315,641.737563,874.636087)">
                    <path d="M1313.409,1207.125L1313.409,579.863L1842.824,1520.8L1313.409,1207.125ZM585.506,1203.852L1125,245L1125,884.204L585.506,1203.852ZM1466.094,1530L411.86,1530L938.977,1217.686L1466.094,1530Z" style="fill:rgb(255,96,0);"/>
                </g>
            </g>
            <g id="Duttfin-Colored" serif:id="Duttfin Colored">
                <g transform="matrix(1,0,0,1,137.615725,-404)">
                    <g transform="matrix(-1,0,0,1,6862.545505,-167.518563)">
                        <path d="M3347.061,1263.519L3347.061,1071.519L3389.728,1071.519L3497.195,1199.519L3497.195,1071.519L3539.061,1071.519L3539.061,1263.519L3496.395,1263.519L3388.395,1134.985L3388.395,1263.519L3347.061,1263.519Z" style="fill-rule:nonzero;"/>
                    </g>
                    <g transform="matrix(1,0,0,1,83.869254,303.481437)">
                        <path d="M3281.482,728.519L3282.282,792.519L3390.282,663.985L3388.948,600.519L3281.482,728.519Z" style="fill:rgb(255,96,0);"/>
                    </g>
                </g>
                <g id="D-with-Triangle" serif:id="D with Triangle" transform="matrix(1,0,0,1,139.511289,-404)">
                    <g transform="matrix(1,0,0,1,160,236.028939)">
                        <path d="M2200.489,859.971L2200.489,667.971L2352.755,667.971C2359.955,667.971 2366.555,669.749 2372.555,673.304C2378.555,676.86 2383.378,681.638 2387.022,687.638C2390.666,693.638 2392.489,700.238 2392.489,707.438L2392.489,820.504C2392.489,827.704 2390.666,834.304 2387.022,840.304C2383.378,846.304 2378.555,851.082 2372.555,854.638C2366.555,858.193 2359.955,859.971 2352.755,859.971L2241.555,859.971L2241.555,818.371L2350.622,818.371L2350.622,709.571L2241.555,709.571L2241.555,818.371L2200.489,859.971Z"/>
                    </g>
                    <g transform="matrix(0.190123,0,0,0.254009,1779.851674,894.374499)">
                        <path d="M3270,630L3270,793.774L3054,793.774L3270,630Z" style="fill:rgb(255,96,0);"/>
                    </g>
                </g>
                <g id="U-with-Triangle" serif:id="U with Triangle" transform="matrix(1,0,0,1,139.171567,-404)">
                    <g transform="matrix(1,0,0,1,-30.904799,210.847132)">
                        <path d="M2593.733,885.153L2593.733,693.153L2635.067,693.153L2635.067,843.553L2743.867,843.553L2743.867,693.153L2785.733,693.153L2785.733,885.153L2593.733,885.153Z"/>
                    </g>
                    <g transform="matrix(0.192593,0,0,0.254009,2125.050655,894.374499)">
                        <path d="M3270,630L3270,793.774L3054,793.774L3270,630Z" style="fill:rgb(255,96,0);"/>
                    </g>
                </g>
                <g id="TT" transform="matrix(1,0,0,1,505.446143,-391.632385)">
                    <path d="M2515.454,933.232L2515.354,933.232L2515.354,1083.632L2473.754,1083.632L2473.754,933.232L2398.554,933.232L2398.554,891.632L2557.054,891.632L2515.454,933.232ZM2598.654,891.632L2707.554,891.632L2707.554,933.232L2632.354,933.232L2632.354,1083.632L2590.754,1083.632L2590.754,933.232L2557.054,933.232L2598.654,891.632Z"/>
                </g>
                <g id="F-with-Triangle" serif:id="F with Triangle" transform="matrix(1,0,0,1,138.5,-404)">
                    <g transform="matrix(1,0,0,1,558.81281,12.367615)">
                        <path d="M2525.687,1083.632L2525.687,891.632L2703.021,891.632L2703.021,933.232L2567.554,933.232L2567.554,966.832L2676.621,966.832L2676.621,1008.432L2567.554,1008.432L2567.554,1083.632L2525.687,1083.632Z" style="fill-rule:nonzero;"/>
                    </g>
                    <g transform="matrix(-0.192593,-0,0,-0.254009,3714.277778,1105.625501)">
                        <path d="M3270,630L3270,793.774L3054,793.774L3270,630Z" style="fill:rgb(255,96,0);"/>
                    </g>
                </g>
                <g id="I" transform="matrix(1,0,0,1,-93.969053,-376.570807)">
                    <rect x="3504.269" y="876.571" width="40.8" height="192" style="fill-rule:nonzero;"/>
                </g>
            </g>
        </g>
    </g>
</svg>
